# Blender v2.82 (sub 7) OBJ File: 'EmitterArrow.blend'
# www.blender.org
mtllib EmitterArrow.mtl
o Cube
v -0.125841 0.125841 2.361800
v -0.125841 -0.125841 2.361800
v -0.083238 0.083238 1.978519
v -0.083238 -0.083238 1.978519
v 0.125841 0.125841 2.361800
v 0.125841 -0.125841 2.361800
v 0.083238 0.083238 1.978519
v 0.083238 -0.083238 1.978519
v -0.199340 -0.199340 2.403066
v 0.199340 -0.199340 2.403066
v -0.199340 0.199340 2.403066
v 0.199340 0.199340 2.403066
v -0.000000 0.000000 3.933010
vt 0.625000 0.500000
vt 0.875000 0.500000
vt 0.875000 0.750000
vt 0.625000 0.750000
vt 0.375000 0.750000
vt 0.625000 1.000000
vt 0.375000 1.000000
vt 0.375000 0.000000
vt 0.625000 0.000000
vt 0.625000 0.250000
vt 0.375000 0.250000
vt 0.125000 0.500000
vt 0.375000 0.500000
vt 0.125000 0.750000
vt 0.625000 0.500000
vt 0.875000 0.500000
vt 0.875000 0.500000
vt 0.375000 0.500000
vt 0.625000 0.250000
vt 0.375000 0.250000
vt 0.125000 0.500000
vt 0.625000 0.500000
vt 0.375000 0.250000
vt 0.375000 0.500000
vn 0.0000 0.9939 -0.1105
vn 0.0000 0.0000 -1.0000
vn 0.9939 0.0000 -0.1105
vn 0.0000 -0.9939 -0.1105
vn -0.9939 0.0000 -0.1105
vn 0.0000 0.4896 -0.8720
vn 0.0000 0.9916 0.1292
vn -0.4896 0.0000 -0.8720
vn 0.4896 0.0000 -0.8720
vn 0.0000 -0.4896 -0.8720
vn -0.9916 0.0000 0.1292
vn 0.9916 0.0000 0.1292
vn 0.0000 -0.9916 0.1292
usemtl Material
s off
f 1/1/1 5/2/1 7/3/1 3/4/1
f 4/5/2 3/4/2 7/6/2 8/7/2
f 8/8/3 7/9/3 5/10/3 6/11/3
f 6/12/4 2/13/4 4/5/4 8/14/4
f 2/13/5 1/1/5 3/4/5 4/5/5
f 5/2/6 1/1/6 11/15/6 12/16/6
f 12/16/7 11/15/7 13/17/7
f 1/1/8 2/13/8 9/18/8 11/15/8
f 6/11/9 5/10/9 12/19/9 10/20/9
f 2/13/10 6/12/10 10/21/10 9/18/10
f 11/15/11 9/18/11 13/22/11
f 10/20/12 12/19/12 13/23/12
f 9/18/13 10/21/13 13/24/13
